PathFileType	4	(X/Y/Z)	outputs\dynamic_markers.trc
DataRate	CameraRate	NumFrames	NumMarkers	Units	OrigDataRate	OrigDataStartFrame	OrigNumFrames
360.000000	360.000000	4	48	m	360.000000	167	669
Frame#	Time	C7			CLAV			LANK			LASI			LBAK			LBHD			LELB			LFHD			LFIN			LFRM			LHEE			LIC			LKNE			LMANK			LMELB			LMKNE			LPSI			LSHO			LTHI			LTIB			LTOE			LUPA			LWRA			LWRB			RANK			RASI			RBAK			RBHD			RELB			RFHD			RFIN			RFRM			RHEE			RIC			RKNE			RMANK			RMELB			RMKNE			RPSI			RSHO			RTHI			RTIB			RTOE			RUPA			RWRA			RWRB			STRN			T10			
		X1	Y1	Z1	X2	Y2	Z2	X3	Y3	Z3	X4	Y4	Z4	X5	Y5	Z5	X6	Y6	Z6	X7	Y7	Z7	X8	Y8	Z8	X9	Y9	Z9	X10	Y10	Z10	X11	Y11	Z11	X12	Y12	Z12	X13	Y13	Z13	X14	Y14	Z14	X15	Y15	Z15	X16	Y16	Z16	X17	Y17	Z17	X18	Y18	Z18	X19	Y19	Z19	X20	Y20	Z20	X21	Y21	Z21	X22	Y22	Z22	X23	Y23	Z23	X24	Y24	Z24	X25	Y25	Z25	X26	Y26	Z26	X27	Y27	Z27	X28	Y28	Z28	X29	Y29	Z29	X30	Y30	Z30	X31	Y31	Z31	X32	Y32	Z32	X33	Y33	Z33	X34	Y34	Z34	X35	Y35	Z35	X36	Y36	Z36	X37	Y37	Z37	X38	Y38	Z38	X39	Y39	Z39	X40	Y40	Z40	X41	Y41	Z41	X42	Y42	Z42	X43	Y43	Z43	X44	Y44	Z44	X45	Y45	Z45	X46	Y46	Z46	X47	Y47	Z47	X48	Y48	Z48	

168	0.4638888888888889	0.01016316097229719	1.637788534164429	0.6413500308990479	0.04151023924350739	1.539273977279663	0.5051310062408447	-0.01878147944808006	0.06119479238986969	0.544638991355896	-0.06946152448654175	1.120681285858154	0.5466654300689697	-0.0871797576546669	1.464978814125061	0.7151654958724976	-0.03762993589043617	1.799507617950439	0.5037397146224976	-0.2420586347579956	1.278618574142456	0.4189621210098267	0.08469819277524948	1.823963761329651	0.4521353840827942	0.03135082125663757	1.399953722953796	0.3049432635307312	-0.1389135867357254	1.330459594726562	0.3522680103778839	0.03164033591747284	0.06742178648710251	0.6242656707763672	-0.1132198721170425	1.153914213180542	0.6267313361167908	-0.06218970566987991	0.5584570169448853	0.4794699549674988	0.09843848645687103	0.07241860777139664	0.5520865321159363	-0.1906469464302063	1.238889575004578	0.495673656463623	0.06006331369280815	0.5509077310562134	0.476116955280304	0.01632250472903252	1.118546843528748	0.738310694694519	-0.1547999531030655	1.61688232421875	0.532558798789978	-0.1058375537395477	0.722743809223175	0.5419819355010986	-0.07274020463228226	0.4251115322113037	0.4918287098407745	0.06336209923028946	0.07123645395040512	0.3644433617591858	-0.2174323499202728	1.446657180786133	0.4660975337028503	-0.002792714396491647	1.360214352607727	0.3546163439750671	-0.03245829045772552	1.319265484809875	0.2871001660823822	0.2819069623947144	0.3949829936027527	0.3965669274330139	0.1893382221460342	1.141014575958252	0.5485277771949768	0.1133764833211899	1.455872893333435	0.7438604831695557	0.01970305666327477	1.776981115341187	0.6467196941375732	0.3832633495330811	1.273016452789307	0.6388996839523315	0.1540984064340591	1.811956644058228	0.5933993458747864	0.2438803911209106	1.377822756767273	0.3225556612014771	0.3185200691223145	1.308377504348755	0.4924923479557037	0.2118774950504303	0.4320182204246521	0.4600797891616821	0.2365128993988037	1.177470207214355	0.6464387774467468	0.2250208556652069	0.8066662549972534	0.1949805319309235	0.1719109416007996	0.3617787659168243	0.3853884339332581	0.3100185394287109	1.228983640670776	0.6684640645980835	0.08726166933774948	0.8044419884681702	0.2033874988555908	0.111840546131134	1.120411992073059	0.740577220916748	0.2127194404602051	1.598668098449707	0.5913069844245911	0.2690981924533844	0.9542694091796875	0.3806046843528748	0.2654464840888977	0.6683743000030518	0.2428402602672577	0.2661871612071991	0.2907375693321228	0.2367723882198334	0.3249848186969757	1.425041317939758	0.5993084907531738	0.2145672142505646	1.329475402832031	0.4356509149074554	0.25310018658638	1.267422199249268	0.4017061293125153	0.04074015468358994	1.355098366737366	0.4836350679397583	0.02097640931606293	1.385897159576416	0.7418100833892822	
169	0.4666666666666667	0.01033259741961956	1.637775540351868	0.6411958932876587	0.04132790490984917	1.539168119430542	0.5049028396606445	-0.01877772063016891	0.06117594242095947	0.5446646213531494	-0.06910698115825653	1.120710134506226	0.5477029085159302	-0.08661935478448868	1.465087890625	0.7156009674072266	-0.03771670162677765	1.799384713172913	0.5035305619239807	-0.2420279085636139	1.278589844703674	0.4188232123851776	0.08447013795375824	1.823845386505127	0.4516902565956116	0.03076672181487083	1.400630593299866	0.3041709363460541	-0.1392114758491516	1.330695271492004	0.3518723547458649	0.03165357559919357	0.06741585582494736	0.6242836713790894	-0.1124045699834824	1.153640627861023	0.6280100345611572	-0.06201509386301041	0.5585483908653259	0.4796842932701111	0.09848146140575409	0.07247764617204666	0.5521133542060852	-0.1902527213096619	1.238789319992065	0.4952486753463745	0.06032188981771469	0.5508909225463867	0.4759050607681274	0.0179886519908905	1.118124127388	0.7386710643768311	-0.1548313051462173	1.616714477539062	0.5328205823898315	-0.1051978766918182	0.7227604389190674	0.5425372719764709	-0.07256894558668137	0.425229549407959	0.49201500415802	0.06322585791349411	0.07132632285356522	0.3644013106822968	-0.2174708694219589	1.446539640426636	0.4663262963294983	-0.002999430987983942	1.360699415206909	0.3537130951881409	-0.03291196376085281	1.319826126098633	0.2862832248210907	0.2816779315471649	0.3988271951675415	0.3871426582336426	0.189737007021904	1.141566276550293	0.5481215715408325	0.1142160296440125	1.456112623214722	0.7435376048088074	0.01981646195054054	1.776846528053284	0.6464228630065918	0.3840000927448273	1.273188948631287	0.6372107267379761	0.1541076749563217	1.811850547790527	0.5929603576660156	0.2437011301517487	1.37843906879425	0.3213888108730316	0.3188482522964478	1.308897733688354	0.490837574005127	0.2122793346643448	0.4351845681667328	0.4516400098800659	0.2374120950698853	1.17780339717865	0.6457884311676025	0.2227422297000885	0.812886118888855	0.1910466253757477	0.1719289124011993	0.3658273220062256	0.3766147792339325	0.3107752203941345	1.229049444198608	0.6667643785476685	0.08505453169345856	0.8103666305541992	0.2004836201667786	0.1132996529340744	1.120248675346375	0.7404916286468506	0.2127837091684341	1.598706126213074	0.5904757976531982	0.2682697176933289	0.9581776857376099	0.3781741857528687	0.2637028694152832	0.6741380095481873	0.2370844781398773	0.264558345079422	0.2963684797286987	0.2263557910919189	0.3252831101417542	1.425156474113464	0.5980035066604614	0.214400053024292	1.330008149147034	0.4344239234924316	0.2530207335948944	1.267992496490479	0.4003140926361084	0.04049780964851379	1.354908466339111	0.4837914407253265	0.02184734307229519	1.38608980178833	0.7420263290405273	
170	0.4694444444444444	0.01052770204842091	1.637774348258972	0.6410173177719116	0.04116962850093842	1.539039254188538	0.504731297492981	-0.01876980438828468	0.06116230040788651	0.5446785092353821	-0.06874075531959534	1.120736598968506	0.5488156080245972	-0.08606857061386108	1.4651780128479	0.715996265411377	-0.03779911249876022	1.79926609992981	0.5033339858055115	-0.2419860064983368	1.278563499450684	0.41867995262146	0.08428318798542023	1.823727369308472	0.4512952864170074	0.03016777150332928	1.401315212249756	0.3034017086029053	-0.1394710093736649	1.330956101417542	0.3515208661556244	0.03165406361222267	0.06740568578243256	0.6242977380752563	-0.1115467250347137	1.153425216674805	0.6292670965194702	-0.06163141503930092	0.5586079359054565	0.4800031185150146	0.09844788908958435	0.07252116501331329	0.5520878434181213	-0.1898332983255386	1.238696455955505	0.494805246591568	0.06057335063815117	0.5508793592453003	0.4756496846675873	0.01955939270555973	1.117803931236267	0.739079475402832	-0.1548792719841003	1.616541504859924	0.5330716371536255	-0.104597195982933	0.722806990146637	0.5429564714431763	-0.07239671796560287	0.4253483414649963	0.4921933114528656	0.06313240528106689	0.07139410078525543	0.364383339881897	-0.2175085842609406	1.446385979652405	0.4665681123733521	-0.003140333574265242	1.361104607582092	0.3529081642627716	-0.03336643055081367	1.320405721664429	0.2854971289634705	0.2814826369285583	0.402802586555481	0.377678245306015	0.1901937574148178	1.142100095748901	0.5477134585380554	0.115064263343811	1.456322431564331	0.743209183216095	0.01992091909050941	1.776750445365906	0.6461566686630249	0.3847075700759888	1.273397445678711	0.6355530023574829	0.1541321575641632	1.811730861663818	0.5925323367118835	0.2432603538036346	1.379022717475891	0.3199039697647095	0.31906458735466	1.309362411499023	0.489415317773819	0.2126138508319855	0.4385011196136475	0.4432476162910461	0.238302156329155	1.178255200386047	0.6453855633735657	0.2205191552639008	0.8191934823989868	0.1871309578418732	0.1714817136526108	0.3699696362018585	0.3677862286567688	0.3115156292915344	1.229069113731384	0.6650503873825073	0.08302480727434158	0.8163796067237854	0.1975979059934616	0.1149066910147667	1.120112419128418	0.7404351830482483	0.2127677202224731	1.598710656166077	0.5896059274673462	0.2673564255237579	0.962069034576416	0.3758451342582703	0.2618905305862427	0.6799727082252502	0.2312386929988861	0.2628666162490845	0.3021417558193207	0.2159416824579239	0.3256414234638214	1.425264358520508	0.5967685580253601	0.2143234014511108	1.330568194389343	0.4331433176994324	0.2531255781650543	1.268639802932739	0.3988621532917023	0.04022147133946419	1.354725360870361	0.4838893413543701	0.02269404195249081	1.386294841766357	0.7422459125518799	
171	0.4722222222222223	0.01073677558451891	1.637764811515808	0.6408839225769043	0.04103707522153854	1.538885831832886	0.50457364320755	-0.01876579597592354	0.06114593148231506	0.5447009205818176	-0.0683782622218132	1.120754480361938	0.5498261451721191	-0.08559248596429825	1.465259671211243	0.7163674831390381	-0.0378679633140564	1.7991544008255	0.5031290054321289	-0.2419255077838898	1.278543472290039	0.418554961681366	0.08407974988222122	1.823599100112915	0.4508833885192871	0.02956809848546982	1.40199339389801	0.3025956749916077	-0.1397031247615814	1.331196188926697	0.3512016832828522	0.03165281563997269	0.06738258898258209	0.6243301033973694	-0.110550545156002	1.153191447257996	0.6306102275848389	-0.06135239452123642	0.5587331056594849	0.4802893996238708	0.09841484576463699	0.07257106155157089	0.5520808100700378	-0.1893411427736282	1.23859691619873	0.4942770302295685	0.06076105311512947	0.5508536100387573	0.4753105938434601	0.02126341313123703	1.117460489273071	0.7395260334014893	-0.154906690120697	1.61638069152832	0.5333106517791748	-0.1037721037864685	0.7228745222091675	0.5436404347419739	-0.07217560708522797	0.4254482090473175	0.492373138666153	0.06304460763931274	0.07144086807966232	0.3643568158149719	-0.2175400108098984	1.44624936580658	0.4667799472808838	-0.003274552989751101	1.361482501029968	0.3521421551704407	-0.03384857624769211	1.320992827415466	0.2847064435482025	0.2811300456523895	0.4068281054496765	0.3684060275554657	0.1907206773757935	1.142692089080811	0.5472621321678162	0.1158702969551086	1.456550240516663	0.7429862022399902	0.02001186646521091	1.776662945747375	0.6459008455276489	0.3853910863399506	1.273569226264954	0.6337182521820068	0.1541657298803329	1.811625003814697	0.5920965671539307	0.2431163489818573	1.37966513633728	0.3185893893241882	0.3192628920078278	1.309821963310242	0.4879400134086609	0.212818831205368	0.4417548179626465	0.4348979592323303	0.2392024248838425	1.178808808326721	0.6450085639953613	0.2183360755443573	0.825520932674408	0.1832776516675949	0.1709631681442261	0.3740661442279816	0.3590080142021179	0.3123772740364075	1.229053854942322	0.6632570624351501	0.0811518058180809	0.8224018216133118	0.1949445605278015	0.1164819449186325	1.119943618774414	0.7401641011238098	0.2128568440675735	1.59870445728302	0.5887951850891113	0.2665165066719055	0.96595299243927	0.3735328316688538	0.2600864171981812	0.6858294606208801	0.225670725107193	0.2610877752304077	0.307993620634079	0.2055712938308716	0.3259975910186768	1.425426721572876	0.5954871773719788	0.2144949585199356	1.331008434295654	0.4320038855075836	0.2533347308635712	1.269209265708923	0.3973791599273682	0.04001976922154427	1.354564905166626	0.4839889705181122	0.02347289025783539	1.386469960212708	0.7424229979515076	
